<?xml version="1.0" standalone="no"?>
<!DOCTYPE svg PUBLIC "-//W3C//DTD SVG 20010904//EN"
 "http://www.w3.org/TR/2001/REC-SVG-20010904/DTD/svg10.dtd">
<svg version="1.0" xmlns="http://www.w3.org/2000/svg"
 width="700.000000pt" height="700.000000pt" viewBox="0 0 700.000000 700.000000"
 preserveAspectRatio="xMidYMid meet">
<metadata>
Created by potrace 1.14, written by Peter Selinger 2001-2017
</metadata>
<g transform="translate(0.000000,700.000000) scale(0.100000,-0.100000)"
fill="#000000" stroke="none">
<path d="M1601 6868 c-68 -26 -140 -96 -162 -159 -46 -128 13 -274 136 -335
50 -24 67 -27 190 -29 123 -3 141 -5 189 -29 115 -56 156 -191 92 -301 -27
-45 -63 -76 -112 -96 -21 -8 -214 -12 -679 -14 -357 -2 -662 -5 -676 -9 -133
-31 -255 -121 -311 -231 -85 -165 -53 -366 79 -501 53 -54 146 -109 200 -119
15 -2 39 -7 51 -9 13 -3 102 -6 198 -6 188 -2 246 -12 318 -54 60 -35 107 -76
100 -87 -3 -5 -49 -35 -102 -66 -110 -66 -100 -60 -224 -132 -137 -80 -201
-125 -238 -167 -42 -48 -88 -147 -96 -205 -7 -48 -16 -59 -52 -59 -40 0 -144
-40 -199 -77 -199 -132 -251 -398 -116 -600 52 -78 136 -141 238 -176 17 -6
168 -13 349 -16 l320 -6 0 -576 c1 -316 -1 -586 -4 -600 l-5 -24 -245 0 c-231
-1 -248 -2 -302 -23 -32 -13 -78 -43 -107 -70 -183 -172 -103 -483 142 -548
28 -8 69 -14 90 -14 185 0 279 -237 146 -368 -57 -56 -87 -64 -257 -67 -172
-4 -232 -14 -314 -57 -106 -56 -186 -151 -219 -262 -23 -74 -19 -201 7 -266
58 -147 181 -253 324 -280 55 -10 5984 -15 6045 -5 78 13 145 40 205 84 249
180 236 549 -25 716 -58 37 -133 60 -225 70 -36 3 -84 15 -107 26 -132 64
-156 247 -46 351 53 51 87 58 276 58 242 0 324 24 422 126 34 35 75 97 80 124
1 3 7 24 13 47 20 68 8 174 -26 246 -47 97 -114 160 -214 199 -50 20 -73 22
-439 23 -212 1 -390 4 -395 7 -11 7 -11 524 0 535 4 4 116 8 250 8 l243 0 77
38 c58 29 86 51 116 88 129 163 71 403 -119 496 l-56 28 -250 3 c-137 1 -254
4 -260 6 -6 2 -9 61 -9 152 3 215 -1 195 35 182 29 -10 155 -7 207 6 54 12
147 73 198 129 60 67 93 141 101 227 3 30 7 57 9 59 2 2 54 6 115 7 206 5 320
70 391 224 90 192 5 416 -192 509 -49 23 -71 26 -210 31 -87 4 -168 12 -185
19 -114 48 -165 161 -124 276 34 93 118 145 237 145 108 0 217 63 265 154 34
63 31 185 -5 246 -35 60 -73 94 -133 121 -50 23 -51 23 -610 24 l-560 0 -35
38 c-60 64 -104 74 -335 72 -226 -2 -252 -8 -313 -73 -34 -36 -37 -37 -100
-35 -109 3 -173 63 -175 163 0 57 24 101 76 137 l39 27 376 1 377 1 55 25
c108 50 171 149 165 259 -7 109 -74 203 -171 240 -54 20 -67 20 -1902 19
l-1847 0 -54 -21z"/>
</g>
</svg>
